<?xml version="1.0" standalone="no"?>
<!DOCTYPE svg PUBLIC "-//W3C//DTD SVG 20010904//EN"
 "http://www.w3.org/TR/2001/REC-SVG-20010904/DTD/svg10.dtd">
<svg version="1.0" xmlns="http://www.w3.org/2000/svg"
 width="700.000000pt" height="700.000000pt" viewBox="0 0 700.000000 700.000000"
 preserveAspectRatio="xMidYMid meet">
<metadata>
Created by potrace 1.11, written by Peter Selinger 2001-2013
</metadata>
<g transform="translate(0.000000,700.000000) scale(0.100000,-0.100000)"
fill="#000000" stroke="none">
<path d="M1387 6634 c-1 -1 -27 -4 -58 -7 -465 -49 -853 -412 -945 -884 -16
-82 -18 -272 -18 -2733 l-1 -2645 3132 0 c2082 0 3134 3 3136 10 2 5 2 1198 2
2650 -2 2888 2 2687 -59 2869 -90 268 -289 497 -541 623 -66 33 -190 80 -233
88 -15 2 -52 10 -82 16 -41 9 -595 12 -2193 14 -1176 0 -2139 0 -2140 -1z
m4288 -451 c200 -41 373 -179 460 -368 63 -135 60 -78 60 -1284 l0 -1103
-2685 0 c-1477 1 -2690 1 -2696 2 -18 0 -15 2153 2 2240 23 112 71 213 136
285 16 16 28 33 28 37 0 12 125 105 175 131 64 32 138 57 195 66 25 4 992 7
2150 8 1781 0 2116 -2 2175 -14z m522 -4286 l0 -1094 -2697 0 -2697 0 0 1094
0 1093 2697 0 2697 0 0 -1093z"/>
<path d="M2023 5745 c-198 -36 -359 -120 -499 -259 -81 -82 -118 -129 -161
-206 -181 -322 -157 -731 60 -1026 179 -244 454 -385 754 -387 134 0 207 11
327 53 69 24 194 90 251 133 148 112 270 283 332 462 24 71 27 84 41 190 60
457 -249 907 -706 1026 -98 26 -298 33 -399 14z m247 -430 c340 -54 526 -426
369 -737 -36 -71 -132 -172 -199 -209 -145 -80 -345 -86 -480 -13 -205 110
-308 315 -275 543 21 148 136 302 278 370 100 49 197 63 307 46z"/>
<path d="M3571 5250 l0 -220 949 0 950 0 0 220 0 220 -950 0 -949 0 0 -220z"/>
<path d="M3588 4592 c-14 -3 -16 -31 -16 -218 0 -154 3 -214 11 -215 7 -1 434
-2 949 -3 l938 -1 0 220 0 220 -933 0 c-513 0 -940 -1 -949 -3z"/>
</g>
</svg>
